<svg 
    id="Layer_1" 
    data-name="Layer 1" 
    xmlns="http://www.w3.org/2000/svg" 
    viewBox="0 0 260.14 48.93">
    <defs>
        <style>.cls-1{fill:#fff;}
        </style>
    </defs>
    <path 
        class="cls-1" 
        d="M43.82,40.84V22h-3.2v-5.6h3.2v-1c0-6.75,5.25-10.55,12.8-10.55a16.39,16.39,0,0,1,7.2,1.5L62.37,12a12,12,0,0,0-5.55-1.25c-4,0-5.4,2.05-5.4,4.75v.85H66.27V40.84h-7.6V22h-7.2V40.84Z" 
        transform="translate(-0.48 -0.9)"/>
        <path 
            class="cls-1" 
            d="M72.37,5.33H80V40.84h-7.6Z" 
            transform="translate(-0.48 -0.9)"/>
        <path 
            class="cls-1" 
            d="M92,31c.25,3.16,3.35,4.66,6.9,4.66a21.53,21.53,0,0,0,6.75-1l1,5.15a24.13,24.13,0,0,1-8.85,1.5c-8.3,0-13-4.8-13-12.45,0-6.21,3.85-13.06,12.35-13.06C105,15.83,108,22,108,28a17.84,17.84,0,0,1-.25,3Zm9-5.2c0-1.85-.8-4.95-4.3-4.95-3.2,0-4.5,2.9-4.7,4.95Z" 
            transform="translate(-0.48 -0.9)"/>
        <path 
            class="cls-1" 
            d="M120.42,7.13v13H133V7.13h7.6V40.84H133V26.73H120.42V40.84h-7.65V7.13Z" 
            transform="translate(-0.48 -0.9)"/>
        <path 
            class="cls-1" 
            d="M171,28.33c0,9-6.35,13.06-12.9,13.06-7.15,0-12.65-4.7-12.65-12.61s5.2-12.95,13.05-12.95C166,15.83,171,21,171,28.33Zm-17.7.25c0,4.21,1.75,7.36,5,7.36,2.95,0,4.85-2.95,4.85-7.36,0-3.65-1.4-7.35-4.85-7.35C154.62,21.23,153.27,25,153.27,28.58Z" 
            transform="translate(-0.48 -0.9)"/>
        <path 
            class="cls-1" 
            d="M175.67,5.33h7.6V40.84h-7.6Z" 
            transform="translate(-0.48 -0.9)"/>
        <path 
            class="cls-1" 
            d="M213.12,5.33V33.54c0,2.75.1,5.65.2,7.3h-6.75l-.35-3.6h-.1a8.54,8.54,0,0,1-7.65,4.15c-5.8,0-10.45-5-10.45-12.56-.05-8.25,5.1-13,10.95-13,3,0,5.35,1,6.45,2.75h.1V5.33Zm-7.6,21.4a12.26,12.26,0,0,0-.1-1.35A4.57,4.57,0,0,0,201,21.63c-3.45,0-5.25,3.1-5.25,7,0,4.16,2.05,6.76,5.2,6.76a4.45,4.45,0,0,0,4.4-3.65,6.5,6.5,0,0,0,.2-1.76Z" 
            transform="translate(-0.48 -0.9)"/>
        <path 
            class="cls-1" 
            d="M225.07,31c.25,3.16,3.35,4.66,6.9,4.66a21.53,21.53,0,0,0,6.75-1l1,5.15a24.13,24.13,0,0,1-8.85,1.5c-8.3,0-13.05-4.8-13.05-12.45,0-6.21,3.85-13.06,12.35-13.06,7.9,0,10.9,6.15,10.9,12.2a17.84,17.84,0,0,1-.25,3Zm9-5.2c0-1.85-.8-4.95-4.3-4.95-3.2,0-4.5,2.9-4.7,4.95Z" 
            transform="translate(-0.48 -0.9)"/>
        <path 
            class="cls-1" 
            d="M245.62,24.43c0-3.6-.1-5.95-.2-8H252l.25,4.5h.2a7.18,7.18,0,0,1,6.6-5,7.83,7.83,0,0,1,1.6.1v7.15a10.89,10.89,0,0,0-2.05-.2c-2.8,0-4.7,1.5-5.2,3.85a9,9,0,0,0-.15,1.7V40.84h-7.6Z" 
            transform="translate(-0.48 -0.9)"/>
        <path 
            class="cls-1" 
            d="M9.84,8.68v2.55l-1.32.09c0,.76,0,1.5,0,2.25,0,2.09,0,4.19-.16,6.28A6.68,6.68,0,0,1,6.26,24c-.73.77-1.55,1.47-2.23,2.28A3.08,3.08,0,0,0,3.2,28c-.08,3.35,0,6.7,0,10.13.3,0,.57,0,.84,0H28.26a2.68,2.68,0,0,0,.75,0,1.35,1.35,0,0,0-.11-2.64,3.74,3.74,0,0,0-.75,0H14.3a2.73,2.73,0,0,1-3.07-3q0-11.75,0-23.5a2.72,2.72,0,0,1,3-3H27.18a5.36,5.36,0,0,1,5.52,5.51q0,12.59,0,25.18a4,4,0,0,1-4.22,4.22q-12.51,0-25,0a2.7,2.7,0,0,1-3-2.95c0-3.16,0-6.32,0-9.48a5.25,5.25,0,0,1,1.6-3.92l2.14-2.14a5.37,5.37,0,0,0,1.64-4c0-2.07.09-4.15,0-6.21C5.68,9.57,7.21,8.24,9.84,8.68Z" 
            transform="translate(-0.48 -0.9)"/>
        
        <rect 
            class="cls-1" 
            y="44.7" 
            width="259.74" 
            height="4.24"/>

        <!-- <rect 
            class="cls-1" 
            x="10.68" 
            width="249.06" 
            height="2.12"/> -->

</svg>